<mxfile host="Electron" modified="2024-03-12T20:36:55.829Z" agent="Mozilla/5.0 (Windows NT 10.0; Win64; x64) AppleWebKit/537.36 (KHTML, like Gecko) draw.io/24.0.4 Chrome/120.0.6099.109 Electron/28.1.0 Safari/537.36" etag="fd4WzxC4Sr11-D4LqqG6" version="24.0.4" type="device">
  <diagram id="6a731a19-8d31-9384-78a2-239565b7b9f0" name="Page-1">
    <mxGraphModel dx="1687" dy="1953" grid="1" gridSize="10" guides="1" tooltips="1" connect="1" arrows="1" fold="1" page="1" pageScale="1" pageWidth="1169" pageHeight="827" background="none" math="0" shadow="0">
      <root>
        <mxCell id="0" />
        <mxCell id="1" parent="0" />
        <mxCell id="1749" value="Reccomendation&lt;div&gt;Systems&lt;/div&gt;" style="rounded=1;whiteSpace=wrap;html=1;shadow=0;labelBackgroundColor=none;strokeColor=none;strokeWidth=3;fillColor=#2F5B7C;fontFamily=Helvetica;fontSize=16;fontColor=#FFFFFF;align=center;fontStyle=1;spacing=5;arcSize=7;perimeterSpacing=2;" parent="1" vertex="1">
          <mxGeometry x="370" y="110" width="150" height="70" as="geometry" />
        </mxCell>
        <mxCell id="1758" value="" style="edgeStyle=none;rounded=0;jumpStyle=none;html=1;shadow=0;labelBackgroundColor=none;startArrow=none;startFill=0;endArrow=classic;endFill=1;jettySize=auto;orthogonalLoop=1;strokeColor=#1699D3;strokeWidth=3;fontFamily=Helvetica;fontSize=14;fontColor=#FFFFFF;spacing=5;entryX=0;entryY=0.5;entryDx=0;entryDy=0;" parent="1" source="1760" target="zgcN9qMILJSzVlXaI8pI-1794" edge="1">
          <mxGeometry relative="1" as="geometry">
            <mxPoint x="1587.9999999999998" y="1580" as="targetPoint" />
          </mxGeometry>
        </mxCell>
        <mxCell id="1759" value="" style="edgeStyle=none;rounded=0;jumpStyle=none;html=1;shadow=0;labelBackgroundColor=none;startArrow=none;startFill=0;endArrow=classic;endFill=1;jettySize=auto;orthogonalLoop=1;strokeColor=#1699D3;strokeWidth=3;fontFamily=Helvetica;fontSize=14;fontColor=#FFFFFF;spacing=5;entryX=0;entryY=0.5;entryDx=0;entryDy=0;" parent="1" source="1760" target="zgcN9qMILJSzVlXaI8pI-1793" edge="1">
          <mxGeometry relative="1" as="geometry">
            <mxPoint x="1587.9999999999998" y="1474.1166666666668" as="targetPoint" />
          </mxGeometry>
        </mxCell>
        <mxCell id="1760" value="Content Based&lt;div&gt;Filtering&lt;/div&gt;" style="rounded=1;whiteSpace=wrap;html=1;shadow=0;labelBackgroundColor=none;strokeColor=none;strokeWidth=3;fillColor=#1699d3;fontFamily=Helvetica;fontSize=14;fontColor=#FFFFFF;align=center;spacing=5;fontStyle=1;arcSize=7;perimeterSpacing=2;" parent="1" vertex="1">
          <mxGeometry x="1169" y="1540" width="150" height="60" as="geometry" />
        </mxCell>
        <mxCell id="1764" value="Collaborative&amp;nbsp;&lt;div&gt;Filtering&lt;/div&gt;" style="rounded=1;whiteSpace=wrap;html=1;shadow=0;labelBackgroundColor=none;strokeColor=none;strokeWidth=3;fillColor=#F08705;fontFamily=Helvetica;fontSize=14;fontColor=#FFFFFF;align=center;spacing=5;fontStyle=1;arcSize=7;perimeterSpacing=2;" parent="1" vertex="1">
          <mxGeometry x="1230" y="680" width="150" height="60" as="geometry" />
        </mxCell>
        <mxCell id="1765" value="Item&lt;div&gt;Collaborative&lt;/div&gt;&lt;div&gt;Filtering&lt;/div&gt;" style="rounded=1;whiteSpace=wrap;html=1;shadow=0;labelBackgroundColor=none;strokeColor=none;strokeWidth=3;fillColor=#ffbf66;fontFamily=Helvetica;fontSize=14;fontColor=#FFFFFF;align=center;spacing=5;arcSize=7;perimeterSpacing=2;" parent="1" vertex="1">
          <mxGeometry x="1470" y="800" width="150" height="60" as="geometry" />
        </mxCell>
        <mxCell id="1766" value="" style="edgeStyle=none;rounded=0;jumpStyle=none;html=1;shadow=0;labelBackgroundColor=none;startArrow=none;startFill=0;endArrow=classic;endFill=1;jettySize=auto;orthogonalLoop=1;strokeColor=#F08705;strokeWidth=3;fontFamily=Helvetica;fontSize=14;fontColor=#FFFFFF;spacing=5;" parent="1" source="1764" target="1765" edge="1">
          <mxGeometry relative="1" as="geometry" />
        </mxCell>
        <mxCell id="1767" value="User&amp;nbsp;&lt;div&gt;Collaborative&lt;/div&gt;&lt;div&gt;Filtering&lt;/div&gt;" style="rounded=1;whiteSpace=wrap;html=1;shadow=0;labelBackgroundColor=none;strokeColor=none;strokeWidth=3;fillColor=#f5af58;fontFamily=Helvetica;fontSize=14;fontColor=#FFFFFF;align=center;spacing=5;arcSize=7;perimeterSpacing=2;" parent="1" vertex="1">
          <mxGeometry x="1450" y="490" width="150" height="60" as="geometry" />
        </mxCell>
        <mxCell id="1768" value="" style="edgeStyle=none;rounded=0;jumpStyle=none;html=1;shadow=0;labelBackgroundColor=none;startArrow=none;startFill=0;endArrow=classic;endFill=1;jettySize=auto;orthogonalLoop=1;strokeColor=#F08705;strokeWidth=3;fontFamily=Helvetica;fontSize=14;fontColor=#FFFFFF;spacing=5;" parent="1" source="1764" target="1767" edge="1">
          <mxGeometry relative="1" as="geometry" />
        </mxCell>
        <mxCell id="1771" value="Hybrid&amp;nbsp;&lt;div&gt;Filtering&lt;/div&gt;" style="rounded=1;whiteSpace=wrap;html=1;shadow=0;labelBackgroundColor=none;strokeColor=none;strokeWidth=3;fillColor=#12aab5;fontFamily=Helvetica;fontSize=14;fontColor=#FFFFFF;align=center;spacing=5;fontStyle=1;arcSize=7;perimeterSpacing=2;" parent="1" vertex="1">
          <mxGeometry x="1230" y="1090" width="150" height="60" as="geometry" />
        </mxCell>
        <mxCell id="1777" value="" style="edgeStyle=none;rounded=1;jumpStyle=none;html=1;shadow=0;labelBackgroundColor=none;startArrow=none;startFill=0;jettySize=auto;orthogonalLoop=1;strokeColor=#12AAB5;strokeWidth=3;fontFamily=Helvetica;fontSize=14;fontColor=#FFFFFF;spacing=5;fontStyle=1;fillColor=#b0e3e6;exitX=1;exitY=0.5;exitDx=0;exitDy=0;entryX=0;entryY=0.5;entryDx=0;entryDy=0;" parent="1" source="1771" target="zgcN9qMILJSzVlXaI8pI-1831" edge="1">
          <mxGeometry relative="1" as="geometry">
            <mxPoint x="1560" y="1170" as="targetPoint" />
          </mxGeometry>
        </mxCell>
        <mxCell id="1779" value="" style="edgeStyle=none;rounded=1;jumpStyle=none;html=1;shadow=0;labelBackgroundColor=none;startArrow=none;startFill=0;jettySize=auto;orthogonalLoop=1;strokeColor=#12AAB5;strokeWidth=3;fontFamily=Helvetica;fontSize=14;fontColor=#FFFFFF;spacing=5;fontStyle=1;fillColor=#b0e3e6;exitX=1;exitY=0.5;exitDx=0;exitDy=0;entryX=0;entryY=0.5;entryDx=0;entryDy=0;" parent="1" source="zgcN9qMILJSzVlXaI8pI-1804" target="1764" edge="1">
          <mxGeometry relative="1" as="geometry">
            <Array as="points" />
          </mxGeometry>
        </mxCell>
        <mxCell id="zgcN9qMILJSzVlXaI8pI-1780" value="Items similiar to&lt;div&gt;user&#39;s interests&lt;/div&gt;" style="rounded=1;whiteSpace=wrap;html=1;shadow=0;labelBackgroundColor=none;strokeColor=none;strokeWidth=3;fillColor=#f5af58;fontFamily=Helvetica;fontSize=14;fontColor=#FFFFFF;align=center;spacing=5;arcSize=7;perimeterSpacing=2;" parent="1" vertex="1">
          <mxGeometry x="1690" y="740" width="150" height="60" as="geometry" />
        </mxCell>
        <mxCell id="zgcN9qMILJSzVlXaI8pI-1781" value="Items similiar&amp;nbsp;&lt;div&gt;to other items&lt;/div&gt;" style="rounded=1;whiteSpace=wrap;html=1;shadow=0;labelBackgroundColor=none;strokeColor=none;strokeWidth=3;fillColor=#f5af58;fontFamily=Helvetica;fontSize=14;fontColor=#FFFFFF;align=center;spacing=5;arcSize=7;perimeterSpacing=2;" parent="1" vertex="1">
          <mxGeometry x="1690" y="840" width="150" height="60" as="geometry" />
        </mxCell>
        <mxCell id="zgcN9qMILJSzVlXaI8pI-1783" value="Similiarities&lt;div&gt;between&lt;/div&gt;&lt;div&gt;Users and Users&lt;/div&gt;" style="rounded=1;whiteSpace=wrap;html=1;shadow=0;labelBackgroundColor=none;strokeColor=none;strokeWidth=3;fillColor=#be6041;fontFamily=Helvetica;fontSize=14;fontColor=#FFFFFF;align=center;spacing=5;arcSize=7;perimeterSpacing=2;" parent="1" vertex="1">
          <mxGeometry x="1690" y="490" width="150" height="60" as="geometry" />
        </mxCell>
        <mxCell id="zgcN9qMILJSzVlXaI8pI-1789" value="" style="edgeStyle=none;rounded=0;jumpStyle=none;html=1;shadow=0;labelBackgroundColor=none;startArrow=none;startFill=0;endArrow=classic;endFill=1;jettySize=auto;orthogonalLoop=1;strokeColor=#e4b168;strokeWidth=3;fontFamily=Helvetica;fontSize=14;fontColor=#FFFFFF;spacing=5;entryX=0;entryY=0.5;entryDx=0;entryDy=0;exitX=1;exitY=0.5;exitDx=0;exitDy=0;" parent="1" source="1767" target="zgcN9qMILJSzVlXaI8pI-1783" edge="1">
          <mxGeometry relative="1" as="geometry">
            <mxPoint x="1337" y="728" as="sourcePoint" />
            <mxPoint x="1503" y="562" as="targetPoint" />
          </mxGeometry>
        </mxCell>
        <mxCell id="zgcN9qMILJSzVlXaI8pI-1791" value="" style="edgeStyle=none;rounded=0;jumpStyle=none;html=1;shadow=0;labelBackgroundColor=none;startArrow=none;startFill=0;endArrow=classic;endFill=1;jettySize=auto;orthogonalLoop=1;strokeColor=#e4b168;strokeWidth=3;fontFamily=Helvetica;fontSize=14;fontColor=#FFFFFF;spacing=5;entryX=0;entryY=0.5;entryDx=0;entryDy=0;exitX=1;exitY=0.5;exitDx=0;exitDy=0;" parent="1" source="1765" target="zgcN9qMILJSzVlXaI8pI-1780" edge="1">
          <mxGeometry relative="1" as="geometry">
            <mxPoint x="1612" y="530" as="sourcePoint" />
            <mxPoint x="1698" y="580" as="targetPoint" />
            <Array as="points" />
          </mxGeometry>
        </mxCell>
        <mxCell id="zgcN9qMILJSzVlXaI8pI-1792" value="" style="edgeStyle=none;rounded=0;jumpStyle=none;html=1;shadow=0;labelBackgroundColor=none;startArrow=none;startFill=0;endArrow=classic;endFill=1;jettySize=auto;orthogonalLoop=1;strokeColor=#e4b168;strokeWidth=3;fontFamily=Helvetica;fontSize=14;fontColor=#FFFFFF;spacing=5;entryX=0;entryY=0.5;entryDx=0;entryDy=0;exitX=1;exitY=0.5;exitDx=0;exitDy=0;" parent="1" source="1765" target="zgcN9qMILJSzVlXaI8pI-1781" edge="1">
          <mxGeometry relative="1" as="geometry">
            <mxPoint x="1632" y="840" as="sourcePoint" />
            <mxPoint x="1698" y="780" as="targetPoint" />
            <Array as="points" />
          </mxGeometry>
        </mxCell>
        <mxCell id="zgcN9qMILJSzVlXaI8pI-1793" value="User choses features&lt;div&gt;they identify with&lt;/div&gt;" style="rounded=1;whiteSpace=wrap;html=1;shadow=0;labelBackgroundColor=none;strokeColor=none;strokeWidth=3;fillColor=#1699d3;fontFamily=Helvetica;fontSize=14;fontColor=#FFFFFF;align=center;spacing=5;fontStyle=1;arcSize=7;perimeterSpacing=2;" parent="1" vertex="1">
          <mxGeometry x="1490" y="1520" width="150" height="60" as="geometry" />
        </mxCell>
        <mxCell id="zgcN9qMILJSzVlXaI8pI-1794" value="Algorithm keeps track of producs,a user has chosen and their features" style="rounded=1;whiteSpace=wrap;html=1;shadow=0;labelBackgroundColor=none;strokeColor=none;strokeWidth=3;fillColor=#1699d3;fontFamily=Helvetica;fontSize=14;fontColor=#FFFFFF;align=center;spacing=5;fontStyle=1;arcSize=7;perimeterSpacing=2;" parent="1" vertex="1">
          <mxGeometry x="1490" y="1610" width="150" height="100" as="geometry" />
        </mxCell>
        <mxCell id="zgcN9qMILJSzVlXaI8pI-1795" value="" style="curved=1;endArrow=classic;html=1;rounded=0;exitX=0.25;exitY=1;exitDx=0;exitDy=0;entryX=0.5;entryY=0;entryDx=0;entryDy=0;dashed=1;dashPattern=12 12;" parent="1" source="1765" target="1760" edge="1">
          <mxGeometry width="50" height="50" relative="1" as="geometry">
            <mxPoint x="980" y="30" as="sourcePoint" />
            <mxPoint x="800" y="670" as="targetPoint" />
            <Array as="points">
              <mxPoint x="1220" y="890" />
              <mxPoint x="1150" y="910" />
              <mxPoint x="1040" y="980" />
              <mxPoint x="1010" y="1150" />
            </Array>
          </mxGeometry>
        </mxCell>
        <mxCell id="zgcN9qMILJSzVlXaI8pI-1796" value="Similiar" style="text;html=1;align=center;verticalAlign=middle;resizable=0;points=[];autosize=1;strokeColor=none;fillColor=none;rotation=-10;" parent="1" vertex="1">
          <mxGeometry x="1180" y="860" width="60" height="30" as="geometry" />
        </mxCell>
        <mxCell id="zgcN9qMILJSzVlXaI8pI-1802" value="User profiles" style="rounded=1;whiteSpace=wrap;html=1;shadow=0;labelBackgroundColor=none;strokeColor=none;strokeWidth=3;fillColor=#6C1E7C;fontFamily=Helvetica;fontSize=16;fontColor=#FFFFFF;align=center;fontStyle=1;spacing=5;arcSize=7;perimeterSpacing=2;" parent="1" vertex="1">
          <mxGeometry x="800" y="-150" width="150" height="70" as="geometry" />
        </mxCell>
        <mxCell id="zgcN9qMILJSzVlXaI8pI-1803" value="Item profiles" style="rounded=1;whiteSpace=wrap;html=1;shadow=0;labelBackgroundColor=none;strokeColor=none;strokeWidth=3;fillColor=#8bf764;fontFamily=Helvetica;fontSize=16;fontColor=#FFFFFF;align=center;fontStyle=1;spacing=5;arcSize=7;perimeterSpacing=2;" parent="1" vertex="1">
          <mxGeometry x="800" y="170" width="150" height="70" as="geometry" />
        </mxCell>
        <mxCell id="zgcN9qMILJSzVlXaI8pI-1804" value="Algorithm&lt;div&gt;Approaches&lt;/div&gt;" style="rounded=1;whiteSpace=wrap;html=1;shadow=0;labelBackgroundColor=none;strokeColor=none;strokeWidth=3;fillColor=#2F5B7C;fontFamily=Helvetica;fontSize=16;fontColor=#FFFFFF;align=center;fontStyle=1;spacing=5;arcSize=7;perimeterSpacing=2;" parent="1" vertex="1">
          <mxGeometry x="690" y="710" width="150" height="70" as="geometry" />
        </mxCell>
        <mxCell id="zgcN9qMILJSzVlXaI8pI-1806" value="" style="edgeStyle=none;rounded=0;jumpStyle=none;html=1;shadow=0;labelBackgroundColor=none;startArrow=none;startFill=0;endArrow=classic;endFill=1;jettySize=auto;orthogonalLoop=1;strokeColor=#F08705;strokeWidth=3;fontFamily=Helvetica;fontSize=14;fontColor=#FFFFFF;spacing=5;exitX=1;exitY=0.5;exitDx=0;exitDy=0;entryX=0;entryY=0.5;entryDx=0;entryDy=0;" parent="1" source="1749" target="zgcN9qMILJSzVlXaI8pI-1804" edge="1">
          <mxGeometry relative="1" as="geometry">
            <mxPoint x="1337" y="558" as="sourcePoint" />
            <mxPoint x="1503" y="392" as="targetPoint" />
          </mxGeometry>
        </mxCell>
        <mxCell id="zgcN9qMILJSzVlXaI8pI-1810" value="Features" style="rounded=1;whiteSpace=wrap;html=1;shadow=0;labelBackgroundColor=none;strokeColor=none;strokeWidth=3;fillColor=#18e240;fontFamily=Helvetica;fontSize=16;fontColor=#FFFFFF;align=center;fontStyle=1;spacing=5;arcSize=7;perimeterSpacing=2;" parent="1" vertex="1">
          <mxGeometry x="1100" y="140" width="150" height="70" as="geometry" />
        </mxCell>
        <mxCell id="zgcN9qMILJSzVlXaI8pI-1812" value="Raitings" style="rounded=1;whiteSpace=wrap;html=1;shadow=0;labelBackgroundColor=none;strokeColor=none;strokeWidth=3;fillColor=#78de5c;fontFamily=Helvetica;fontSize=16;fontColor=#FFFFFF;align=center;fontStyle=1;spacing=5;arcSize=7;perimeterSpacing=2;" parent="1" vertex="1">
          <mxGeometry x="1100" y="240" width="150" height="70" as="geometry" />
        </mxCell>
        <mxCell id="zgcN9qMILJSzVlXaI8pI-1813" value="" style="edgeStyle=none;rounded=0;jumpStyle=none;html=1;shadow=0;labelBackgroundColor=none;startArrow=none;startFill=0;endArrow=classic;endFill=1;jettySize=auto;orthogonalLoop=1;strokeColor=#F08705;strokeWidth=3;fontFamily=Helvetica;fontSize=14;fontColor=#FFFFFF;spacing=5;exitX=1;exitY=0.5;exitDx=0;exitDy=0;entryX=0;entryY=0.5;entryDx=0;entryDy=0;" parent="1" source="1749" target="zgcN9qMILJSzVlXaI8pI-1803" edge="1">
          <mxGeometry relative="1" as="geometry">
            <mxPoint x="532" y="192" as="sourcePoint" />
            <mxPoint x="788" y="505" as="targetPoint" />
          </mxGeometry>
        </mxCell>
        <mxCell id="zgcN9qMILJSzVlXaI8pI-1814" value="" style="edgeStyle=none;rounded=0;jumpStyle=none;html=1;shadow=0;labelBackgroundColor=none;startArrow=none;startFill=0;endArrow=classic;endFill=1;jettySize=auto;orthogonalLoop=1;strokeColor=#F08705;strokeWidth=3;fontFamily=Helvetica;fontSize=14;fontColor=#FFFFFF;spacing=5;exitX=1;exitY=0.5;exitDx=0;exitDy=0;entryX=0;entryY=0.5;entryDx=0;entryDy=0;" parent="1" source="1749" target="zgcN9qMILJSzVlXaI8pI-1802" edge="1">
          <mxGeometry relative="1" as="geometry">
            <mxPoint x="532" y="155" as="sourcePoint" />
            <mxPoint x="808" y="45" as="targetPoint" />
          </mxGeometry>
        </mxCell>
        <mxCell id="zgcN9qMILJSzVlXaI8pI-1815" value="" style="edgeStyle=none;rounded=0;jumpStyle=none;html=1;shadow=0;labelBackgroundColor=none;startArrow=none;startFill=0;endArrow=classic;endFill=1;jettySize=auto;orthogonalLoop=1;strokeColor=#F08705;strokeWidth=3;fontFamily=Helvetica;fontSize=14;fontColor=#FFFFFF;spacing=5;exitX=1;exitY=0.5;exitDx=0;exitDy=0;entryX=0;entryY=0.5;entryDx=0;entryDy=0;" parent="1" source="zgcN9qMILJSzVlXaI8pI-1803" target="zgcN9qMILJSzVlXaI8pI-1810" edge="1">
          <mxGeometry relative="1" as="geometry">
            <mxPoint x="532" y="155" as="sourcePoint" />
            <mxPoint x="808" y="45" as="targetPoint" />
          </mxGeometry>
        </mxCell>
        <mxCell id="zgcN9qMILJSzVlXaI8pI-1816" value="" style="edgeStyle=none;rounded=0;jumpStyle=none;html=1;shadow=0;labelBackgroundColor=none;startArrow=none;startFill=0;endArrow=classic;endFill=1;jettySize=auto;orthogonalLoop=1;strokeColor=#F08705;strokeWidth=3;fontFamily=Helvetica;fontSize=14;fontColor=#FFFFFF;spacing=5;exitX=1;exitY=0.5;exitDx=0;exitDy=0;entryX=0;entryY=0.5;entryDx=0;entryDy=0;" parent="1" source="zgcN9qMILJSzVlXaI8pI-1803" target="zgcN9qMILJSzVlXaI8pI-1812" edge="1">
          <mxGeometry relative="1" as="geometry">
            <mxPoint x="962" y="45" as="sourcePoint" />
            <mxPoint x="1068" y="25" as="targetPoint" />
          </mxGeometry>
        </mxCell>
        <mxCell id="zgcN9qMILJSzVlXaI8pI-1817" value="Personal&amp;nbsp;&lt;div&gt;Interest&lt;/div&gt;" style="rounded=1;whiteSpace=wrap;html=1;shadow=0;labelBackgroundColor=none;strokeColor=none;strokeWidth=3;fillColor=#DE59C8;fontFamily=Helvetica;fontSize=16;fontColor=#FFFFFF;align=center;fontStyle=1;spacing=5;arcSize=7;perimeterSpacing=2;" parent="1" vertex="1">
          <mxGeometry x="1070" y="-230" width="150" height="70" as="geometry" />
        </mxCell>
        <mxCell id="zgcN9qMILJSzVlXaI8pI-1818" value="User Interest&lt;div&gt;Similiarities&lt;/div&gt;" style="rounded=1;whiteSpace=wrap;html=1;shadow=0;labelBackgroundColor=none;strokeColor=none;strokeWidth=3;fillColor=#c859c3;fontFamily=Helvetica;fontSize=16;fontColor=#FFFFFF;align=center;fontStyle=1;spacing=5;arcSize=7;perimeterSpacing=2;" parent="1" vertex="1">
          <mxGeometry x="1070" y="-130" width="150" height="70" as="geometry" />
        </mxCell>
        <mxCell id="zgcN9qMILJSzVlXaI8pI-1819" value="" style="edgeStyle=none;rounded=0;jumpStyle=none;html=1;shadow=0;labelBackgroundColor=none;startArrow=none;startFill=0;endArrow=classic;endFill=1;jettySize=auto;orthogonalLoop=1;strokeColor=#F08705;strokeWidth=3;fontFamily=Helvetica;fontSize=14;fontColor=#FFFFFF;spacing=5;exitX=1;exitY=0.5;exitDx=0;exitDy=0;entryX=-0.004;entryY=0.622;entryDx=0;entryDy=0;entryPerimeter=0;" parent="1" source="zgcN9qMILJSzVlXaI8pI-1802" target="zgcN9qMILJSzVlXaI8pI-1817" edge="1">
          <mxGeometry relative="1" as="geometry">
            <mxPoint x="962" y="-260" as="sourcePoint" />
            <mxPoint x="1068" y="-280" as="targetPoint" />
          </mxGeometry>
        </mxCell>
        <mxCell id="zgcN9qMILJSzVlXaI8pI-1820" value="" style="edgeStyle=none;rounded=0;jumpStyle=none;html=1;shadow=0;labelBackgroundColor=none;startArrow=none;startFill=0;endArrow=classic;endFill=1;jettySize=auto;orthogonalLoop=1;strokeColor=#F08705;strokeWidth=3;fontFamily=Helvetica;fontSize=14;fontColor=#FFFFFF;spacing=5;exitX=1;exitY=0.5;exitDx=0;exitDy=0;entryX=0;entryY=0.5;entryDx=0;entryDy=0;" parent="1" source="zgcN9qMILJSzVlXaI8pI-1802" target="zgcN9qMILJSzVlXaI8pI-1818" edge="1">
          <mxGeometry relative="1" as="geometry">
            <mxPoint x="992" y="-185" as="sourcePoint" />
            <mxPoint x="1067" y="-236" as="targetPoint" />
          </mxGeometry>
        </mxCell>
        <mxCell id="zgcN9qMILJSzVlXaI8pI-1823" value="" style="edgeStyle=none;rounded=1;jumpStyle=none;html=1;shadow=0;labelBackgroundColor=none;startArrow=none;startFill=0;jettySize=auto;orthogonalLoop=1;strokeColor=#12AAB5;strokeWidth=3;fontFamily=Helvetica;fontSize=14;fontColor=#FFFFFF;spacing=5;fontStyle=1;fillColor=#b0e3e6;exitX=1;exitY=0.5;exitDx=0;exitDy=0;entryX=0;entryY=0.5;entryDx=0;entryDy=0;" parent="1" source="zgcN9qMILJSzVlXaI8pI-1804" target="1771" edge="1">
          <mxGeometry relative="1" as="geometry">
            <mxPoint x="932" y="665" as="sourcePoint" />
            <mxPoint x="1228" y="760" as="targetPoint" />
            <Array as="points" />
          </mxGeometry>
        </mxCell>
        <mxCell id="zgcN9qMILJSzVlXaI8pI-1824" value="" style="edgeStyle=none;rounded=1;jumpStyle=none;html=1;shadow=0;labelBackgroundColor=none;startArrow=none;startFill=0;jettySize=auto;orthogonalLoop=1;strokeColor=#12AAB5;strokeWidth=3;fontFamily=Helvetica;fontSize=14;fontColor=#FFFFFF;spacing=5;fontStyle=1;fillColor=#b0e3e6;exitX=1;exitY=0.5;exitDx=0;exitDy=0;entryX=0;entryY=0.5;entryDx=0;entryDy=0;" parent="1" source="zgcN9qMILJSzVlXaI8pI-1804" target="1760" edge="1">
          <mxGeometry relative="1" as="geometry">
            <mxPoint x="872" y="855" as="sourcePoint" />
            <mxPoint x="1348" y="1221" as="targetPoint" />
            <Array as="points" />
          </mxGeometry>
        </mxCell>
        <mxCell id="zgcN9qMILJSzVlXaI8pI-1826" value="" style="curved=1;endArrow=classic;html=1;rounded=0;exitX=0.5;exitY=1;exitDx=0;exitDy=0;entryX=0.5;entryY=0;entryDx=0;entryDy=0;" parent="1" source="zgcN9qMILJSzVlXaI8pI-1803" target="zgcN9qMILJSzVlXaI8pI-1804" edge="1">
          <mxGeometry width="50" height="50" relative="1" as="geometry">
            <mxPoint x="1160" y="400" as="sourcePoint" />
            <mxPoint x="1210" y="350" as="targetPoint" />
            <Array as="points">
              <mxPoint x="765" y="400" />
              <mxPoint x="1000" y="470" />
            </Array>
          </mxGeometry>
        </mxCell>
        <mxCell id="zgcN9qMILJSzVlXaI8pI-1827" value="" style="curved=1;endArrow=classic;html=1;rounded=0;exitX=0.5;exitY=1;exitDx=0;exitDy=0;entryX=0.5;entryY=0;entryDx=0;entryDy=0;" parent="1" source="zgcN9qMILJSzVlXaI8pI-1802" target="zgcN9qMILJSzVlXaI8pI-1804" edge="1">
          <mxGeometry width="50" height="50" relative="1" as="geometry">
            <mxPoint x="885" y="252" as="sourcePoint" />
            <mxPoint x="775" y="718" as="targetPoint" />
            <Array as="points">
              <mxPoint x="630" y="320" />
              <mxPoint x="880" y="500" />
            </Array>
          </mxGeometry>
        </mxCell>
        <mxCell id="zgcN9qMILJSzVlXaI8pI-1828" value="Taken into consideration" style="text;html=1;align=center;verticalAlign=middle;resizable=0;points=[];autosize=1;strokeColor=none;fillColor=none;rotation=-60;" parent="1" vertex="1">
          <mxGeometry x="690" y="70" width="150" height="30" as="geometry" />
        </mxCell>
        <mxCell id="zgcN9qMILJSzVlXaI8pI-1829" value="Taken into consideration" style="text;html=1;align=center;verticalAlign=middle;resizable=0;points=[];autosize=1;strokeColor=none;fillColor=none;rotation=-60;" parent="1" vertex="1">
          <mxGeometry x="790" y="300" width="150" height="30" as="geometry" />
        </mxCell>
        <mxCell id="zgcN9qMILJSzVlXaI8pI-1831" value="Combiner" style="rounded=1;whiteSpace=wrap;html=1;shadow=0;labelBackgroundColor=none;strokeColor=none;strokeWidth=3;fillColor=#12aab5;fontFamily=Helvetica;fontSize=14;fontColor=#FFFFFF;align=center;spacing=5;fontStyle=1;arcSize=7;perimeterSpacing=2;" parent="1" vertex="1">
          <mxGeometry x="1540" y="1140" width="150" height="60" as="geometry" />
        </mxCell>
        <mxCell id="zgcN9qMILJSzVlXaI8pI-1834" value="" style="edgeStyle=none;rounded=0;jumpStyle=none;html=1;shadow=0;labelBackgroundColor=none;startArrow=none;startFill=0;jettySize=auto;orthogonalLoop=1;strokeColor=#12AAB5;strokeWidth=3;fontFamily=Helvetica;fontSize=14;fontColor=#FFFFFF;spacing=5;fontStyle=1;fillColor=#b0e3e6;exitX=0.5;exitY=1;exitDx=0;exitDy=0;entryX=0;entryY=0.5;entryDx=0;entryDy=0;curved=1;dashed=1;" parent="1" source="1765" target="zgcN9qMILJSzVlXaI8pI-1831" edge="1">
          <mxGeometry relative="1" as="geometry">
            <mxPoint x="852" y="755" as="sourcePoint" />
            <mxPoint x="1288" y="1180" as="targetPoint" />
            <Array as="points">
              <mxPoint x="1440" y="1020" />
            </Array>
          </mxGeometry>
        </mxCell>
        <mxCell id="zgcN9qMILJSzVlXaI8pI-1835" value="" style="edgeStyle=none;rounded=0;jumpStyle=none;html=1;shadow=0;labelBackgroundColor=none;startArrow=none;startFill=0;jettySize=auto;orthogonalLoop=1;strokeColor=#12AAB5;strokeWidth=3;fontFamily=Helvetica;fontSize=14;fontColor=#FFFFFF;spacing=5;fontStyle=1;fillColor=#b0e3e6;exitX=0.5;exitY=0;exitDx=0;exitDy=0;entryX=0;entryY=0.5;entryDx=0;entryDy=0;curved=1;dashed=1;" parent="1" source="1760" target="zgcN9qMILJSzVlXaI8pI-1831" edge="1">
          <mxGeometry relative="1" as="geometry">
            <mxPoint x="1555" y="872" as="sourcePoint" />
            <mxPoint x="1548" y="1180" as="targetPoint" />
            <Array as="points">
              <mxPoint x="1400" y="1210" />
            </Array>
          </mxGeometry>
        </mxCell>
        <mxCell id="zgcN9qMILJSzVlXaI8pI-1836" value="Accurate output" style="whiteSpace=wrap;html=1;fontSize=14;fillColor=#12aab5;strokeColor=none;fontColor=#FFFFFF;rounded=1;shadow=0;labelBackgroundColor=none;strokeWidth=3;spacing=5;fontStyle=1;arcSize=7;" parent="1" vertex="1">
          <mxGeometry x="1785" y="1140" width="120" height="60" as="geometry" />
        </mxCell>
        <mxCell id="p2BSuAeXdp_WcsohuGZE-1779" value="" style="edgeStyle=none;rounded=1;jumpStyle=none;html=1;shadow=0;labelBackgroundColor=none;startArrow=none;startFill=0;jettySize=auto;orthogonalLoop=1;strokeColor=#12AAB5;strokeWidth=3;fontFamily=Helvetica;fontSize=14;fontColor=#FFFFFF;spacing=5;fontStyle=1;fillColor=#b0e3e6;exitX=1;exitY=0.5;exitDx=0;exitDy=0;entryX=0;entryY=0.5;entryDx=0;entryDy=0;" parent="1" source="zgcN9qMILJSzVlXaI8pI-1831" target="zgcN9qMILJSzVlXaI8pI-1836" edge="1">
          <mxGeometry relative="1" as="geometry">
            <mxPoint x="1548" y="1180" as="targetPoint" />
            <mxPoint x="1392" y="1130" as="sourcePoint" />
          </mxGeometry>
        </mxCell>
        <mxCell id="Y6rBh3KKklyPApAVPKDH-1779" value="User Input" style="rounded=1;whiteSpace=wrap;html=1;shadow=0;labelBackgroundColor=none;strokeColor=none;strokeWidth=3;fillColor=#c859c3;fontFamily=Helvetica;fontSize=16;fontColor=#FFFFFF;align=center;fontStyle=1;spacing=5;arcSize=7;perimeterSpacing=2;" vertex="1" parent="1">
          <mxGeometry x="1070" y="-320" width="150" height="70" as="geometry" />
        </mxCell>
        <mxCell id="Y6rBh3KKklyPApAVPKDH-1780" value="" style="edgeStyle=none;rounded=0;jumpStyle=none;html=1;shadow=0;labelBackgroundColor=none;startArrow=none;startFill=0;endArrow=classic;endFill=1;jettySize=auto;orthogonalLoop=1;strokeColor=#F08705;strokeWidth=3;fontFamily=Helvetica;fontSize=14;fontColor=#FFFFFF;spacing=5;exitX=1;exitY=0.5;exitDx=0;exitDy=0;entryX=0;entryY=0.5;entryDx=0;entryDy=0;" edge="1" parent="1" source="zgcN9qMILJSzVlXaI8pI-1802" target="Y6rBh3KKklyPApAVPKDH-1779">
          <mxGeometry relative="1" as="geometry">
            <mxPoint x="962" y="-105" as="sourcePoint" />
            <mxPoint x="1077" y="-176" as="targetPoint" />
          </mxGeometry>
        </mxCell>
      </root>
    </mxGraphModel>
  </diagram>
</mxfile>
